<svg width="646" height="646" viewBox="0 0 646 646" fill="none" xmlns="http://www.w3.org/2000/svg">
<rect width="646" height="646" fill="#1E1E1E"/>
<path d="M62 376.249H118.714V388.539H74.86V406.62H112.101V418.159H74.86V445.348H62V376.249Z" fill="white"/>
<path d="M127.395 410.599C127.395 405.383 128.274 400.608 130.032 396.275C131.79 391.943 134.251 388.229 137.416 385.135C140.607 382.011 144.42 379.594 148.856 377.884C153.318 376.175 158.254 375.32 163.663 375.32C169.045 375.32 173.967 376.175 178.43 377.884C182.892 379.594 186.705 382.011 189.87 385.135C193.061 388.229 195.536 391.943 197.294 396.275C199.052 400.608 199.931 405.383 199.931 410.599C199.931 415.845 199.052 420.664 197.294 425.056C195.536 429.418 193.061 433.175 189.87 436.329C186.705 439.483 182.892 441.944 178.43 443.712C173.967 445.451 169.045 446.32 163.663 446.32C158.254 446.32 153.318 445.451 148.856 443.712C144.42 441.944 140.607 439.483 137.416 436.329C134.251 433.175 131.79 429.418 130.032 425.056C128.274 420.664 127.395 415.845 127.395 410.599ZM140.255 410.599C140.255 414.165 140.837 417.378 142 420.237C143.19 423.096 144.826 425.542 146.908 427.576C149.018 429.58 151.493 431.127 154.332 432.218C157.199 433.308 160.309 433.853 163.663 433.853C167.016 433.853 170.113 433.308 172.953 432.218C175.82 431.127 178.294 429.58 180.377 427.576C182.459 425.542 184.096 423.096 185.286 420.237C186.476 417.378 187.071 414.165 187.071 410.599C187.071 407.033 186.476 403.835 185.286 401.006C184.096 398.176 182.459 395.789 180.377 393.844C178.294 391.869 175.82 390.366 172.953 389.335C170.113 388.303 167.016 387.787 163.663 387.787C160.309 387.787 157.199 388.303 154.332 389.335C151.493 390.366 149.018 391.869 146.908 393.844C144.826 395.789 143.19 398.176 142 401.006C140.837 403.835 140.255 407.033 140.255 410.599Z" fill="white"/>
<path d="M211.817 376.249H224.677V414.313C224.677 417.437 225.069 420.222 225.853 422.668C226.638 425.085 227.801 427.134 229.342 428.813C230.911 430.493 232.845 431.775 235.143 432.66C237.442 433.514 240.12 433.942 243.176 433.942C246.205 433.942 248.869 433.514 251.168 432.66C253.494 431.775 255.427 430.493 256.969 428.813C258.537 427.134 259.714 425.085 260.498 422.668C261.283 420.222 261.675 417.437 261.675 414.313V376.249H274.535V415.993C274.535 420.532 273.831 424.658 272.425 428.371C271.019 432.085 268.977 435.268 266.299 437.921C263.622 440.573 260.336 442.621 256.441 444.066C252.574 445.51 248.152 446.232 243.176 446.232C238.199 446.232 233.764 445.51 229.87 444.066C226.002 442.621 222.73 440.573 220.052 437.921C217.375 435.268 215.333 432.085 213.926 428.371C212.52 424.658 211.817 420.532 211.817 415.993V376.249Z" fill="white"/>
<path d="M290.153 376.249H303.013L342.526 398.795V376.249H355.386V445.348H342.526V413.65L303.013 391.236V445.348H290.153V376.249Z" fill="white"/>
<path d="M373.317 376.249H396.563C403.351 376.249 409.247 377.044 414.25 378.636C419.254 380.228 423.391 382.512 426.664 385.488C429.963 388.436 432.411 392.031 434.007 396.275C435.629 400.49 436.441 405.235 436.441 410.511C436.441 415.521 435.643 420.163 434.047 424.437C432.452 428.681 430.018 432.365 426.745 435.489C423.473 438.584 419.335 441.015 414.331 442.784C409.328 444.522 403.432 445.392 396.644 445.392L373.317 445.348V376.249ZM399.727 433.234C403.567 433.234 406.934 432.704 409.828 431.643C412.722 430.552 415.129 429.02 417.049 427.045C418.997 425.07 420.457 422.683 421.431 419.883C422.404 417.083 422.891 413.959 422.891 410.511C422.891 407.121 422.404 404.071 421.431 401.36C420.457 398.619 418.997 396.305 417.049 394.419C415.129 392.503 412.722 391.029 409.828 389.998C406.934 388.966 403.567 388.45 399.727 388.45H386.177V433.234H399.727Z" fill="white"/>
<path d="M449.341 376.249H481.593C486.461 376.249 490.68 376.809 494.25 377.929C497.82 379.019 500.781 380.611 503.134 382.703C505.487 384.796 507.232 387.345 508.367 390.351C509.53 393.358 510.112 396.762 510.112 400.564C510.112 403.128 509.828 405.574 509.26 407.903C508.692 410.201 507.813 412.323 506.623 414.269C505.46 416.214 503.986 417.953 502.201 419.485C500.416 420.988 498.32 422.241 495.913 423.243L509.706 445.348H493.966L482.039 425.719H481.674L462.201 425.675V445.348H449.341V376.249ZM481.917 413.561C484.351 413.561 486.474 413.252 488.286 412.633C490.125 412.014 491.654 411.145 492.871 410.025C494.115 408.905 495.034 407.549 495.629 405.957C496.251 404.336 496.562 402.538 496.562 400.564C496.562 396.703 495.345 393.726 492.911 391.634C490.477 389.511 486.812 388.45 481.917 388.45H462.201V413.561H481.917Z" fill="white"/>
<path d="M544.797 428.239L517.09 376.249H531.653L551.166 415.551L570.436 376.249H585L557.657 428.15V445.348H544.797V428.239Z" fill="white"/>
<path d="M141.103 163C165.582 163 184.918 170.487 199.11 185.461C213.433 200.305 220.595 220.552 220.595 246.203C220.595 264.953 216.884 281.294 209.462 295.227C201.91 309.029 192.144 319.706 180.165 327.258C168.186 334.81 155.165 338.586 141.103 338.586H110.634V370.32H62.002L62.5869 164.562C62.5869 163.521 63.1077 163 64.1494 163H141.103ZM110.634 210.852V290.148H141.103C149.566 290.148 156.923 286.112 163.173 278.039C169.423 269.836 172.548 259.224 172.548 246.203C172.548 235.786 169.748 227.258 164.149 220.617C158.55 213.846 150.868 210.461 141.103 210.461L110.634 210.852Z" fill="white"/>
<path d="M326.483 163C340.937 163 354.218 166.516 366.327 173.547C378.437 180.578 388.072 190.018 395.233 201.867C402.525 213.716 406.171 227.128 406.171 242.102C406.171 251.867 404.674 260.721 401.679 268.664C398.684 276.607 395.168 283.312 391.132 288.781C387.226 294.25 383.645 298.286 380.39 300.891C394.843 316.906 402.069 335.721 402.069 357.336L402.131 370.32H353.632V357.336C353.632 347.701 350.246 339.367 343.476 332.336C336.705 325.305 328.371 321.789 318.476 321.789H292.108L291.947 370.32H243.477L244.062 164.562C244.062 163.521 244.582 163 245.624 163H326.483ZM292.108 273.742H326.483C334.687 273.742 341.978 270.682 348.358 264.562C354.869 258.443 358.124 250.956 358.124 242.102C358.124 233.638 354.999 226.346 348.749 220.227C342.499 213.977 335.077 210.852 326.483 210.852H292.108V273.742Z" fill="white"/>
<path d="M506.32 163C521.164 163 534.38 166.581 545.969 173.742C557.687 180.904 566.997 190.604 573.898 202.844C580.93 214.953 584.445 228.495 584.445 243.469V261.828C584.445 262.87 583.924 263.391 582.883 263.391H537.961C536.919 263.391 536.398 262.87 536.398 261.828V243.469C536.398 234.615 533.534 226.997 527.805 220.617C522.076 214.237 514.914 211.047 506.32 211.047C496.815 211.047 489.523 214.302 484.445 220.812C479.367 227.323 476.828 234.875 476.828 243.469V368.273C476.828 369.133 476.851 369.98 476.896 370.812H428.034C428.012 369.971 428 369.124 428 368.273L428.391 243.469C428.391 228.625 431.776 215.213 438.547 203.234C445.318 191.125 454.628 181.424 466.477 174.133C478.456 166.711 491.737 163 506.32 163ZM583.273 348.156C584.315 348.156 584.836 348.677 584.836 349.719V368.273C584.836 369.124 584.823 369.97 584.801 370.812H536.31C536.368 369.974 536.398 369.128 536.398 368.273V349.719C536.399 348.677 536.919 348.156 537.961 348.156H583.273Z" fill="white"/>
</svg>
