<svg width="785" height="465" viewBox="0 0 785 465" fill="none" xmlns="http://www.w3.org/2000/svg">
<path d="M785 465H0V0H785V465ZM231.663 305.32C226.254 305.32 221.318 306.175 216.855 307.885C212.42 309.594 208.607 312.011 205.416 315.135C202.252 318.229 199.79 321.943 198.032 326.275C196.274 330.608 195.396 335.383 195.396 340.6C195.396 345.846 196.274 350.664 198.032 355.056C199.79 359.418 202.252 363.176 205.416 366.329C208.607 369.483 212.42 371.944 216.855 373.712C221.318 375.451 226.254 376.32 231.663 376.32C237.045 376.32 241.967 375.451 246.43 373.712C250.892 371.944 254.706 369.483 257.87 366.329C261.061 363.176 263.536 359.418 265.294 355.056C267.052 350.664 267.931 345.846 267.931 340.6C267.931 335.383 267.052 330.608 265.294 326.275C263.536 321.943 261.061 318.229 257.87 315.135C254.706 312.011 250.892 309.594 246.43 307.885C241.967 306.175 237.045 305.32 231.663 305.32ZM279.816 345.993C279.816 350.532 280.52 354.658 281.927 358.371C283.333 362.085 285.374 365.268 288.052 367.921C290.729 370.573 294.002 372.621 297.869 374.065C301.764 375.51 306.199 376.231 311.176 376.231C316.152 376.231 320.574 375.51 324.441 374.065C328.336 372.621 331.622 370.573 334.3 367.921C336.977 365.268 339.018 362.085 340.425 358.371C341.831 354.658 342.535 350.532 342.535 345.993V306.249H329.675V344.312C329.675 347.436 329.282 350.222 328.498 352.668C327.714 355.085 326.537 357.134 324.969 358.813C323.427 360.493 321.494 361.775 319.168 362.659C316.869 363.514 314.205 363.941 311.176 363.941C308.12 363.941 305.442 363.514 303.144 362.659C300.845 361.775 298.91 360.493 297.342 358.813C295.8 357.134 294.638 355.085 293.854 352.668C293.069 350.222 292.677 347.436 292.677 344.312V306.249H279.816V345.993ZM441.317 375.348L464.644 375.392C471.432 375.392 477.328 374.522 482.331 372.783C487.334 371.015 491.473 368.584 494.745 365.489C498.018 362.365 500.451 358.681 502.047 354.437C503.643 350.163 504.44 345.521 504.44 340.511C504.44 335.235 503.63 330.49 502.007 326.275C500.411 322.031 497.964 318.436 494.664 315.488C491.392 312.512 487.253 310.227 482.25 308.636C477.247 307.044 471.351 306.249 464.562 306.249H441.317V375.348ZM130 375.348H142.86V348.159H180.102V336.62H142.86V318.539H186.714V306.249H130V375.348ZM358.153 375.348H371.014V321.235L410.526 343.649V375.348H423.387V306.249H410.526V328.795L371.014 306.249H358.153V375.348ZM517.342 375.348H530.201V355.675L549.674 355.719H550.039L561.966 375.348H577.706L563.913 353.243C566.32 352.241 568.416 350.988 570.201 349.485C571.986 347.953 573.46 346.214 574.623 344.269C575.813 342.323 576.692 340.201 577.26 337.902C577.828 335.574 578.112 333.128 578.112 330.563C578.112 326.762 577.53 323.358 576.367 320.352C575.231 317.345 573.487 314.796 571.134 312.703C568.781 310.611 565.82 309.019 562.25 307.929C558.68 306.809 554.461 306.249 549.593 306.249H517.342V375.348ZM612.797 358.238V375.348H625.657V358.15L653 306.249H638.437L619.166 345.551L599.653 306.249H585.09L612.797 358.238ZM231.663 317.787C235.017 317.787 238.113 318.303 240.953 319.335C243.82 320.366 246.295 321.869 248.377 323.844C250.459 325.789 252.095 328.177 253.285 331.006C254.475 333.835 255.07 337.033 255.07 340.6C255.07 344.166 254.475 347.379 253.285 350.237C252.095 353.096 250.459 355.542 248.377 357.575C246.294 359.579 243.82 361.127 240.953 362.218C238.113 363.308 235.017 363.853 231.663 363.854C228.309 363.854 225.199 363.308 222.332 362.218C219.492 361.127 217.018 359.579 214.908 357.575C212.826 355.542 211.19 353.096 210 350.237C208.837 347.379 208.255 344.166 208.255 340.6C208.255 337.033 208.837 333.835 210 331.006C211.19 328.177 212.826 325.789 214.908 323.844C217.018 321.869 219.492 320.367 222.332 319.335C225.199 318.303 228.309 317.787 231.663 317.787ZM467.727 318.45C471.567 318.45 474.934 318.967 477.828 319.998C480.722 321.03 483.13 322.503 485.05 324.419C486.997 326.305 488.457 328.619 489.431 331.359C490.404 334.071 490.892 337.121 490.892 340.511C490.892 343.959 490.404 347.083 489.431 349.883C488.457 352.683 486.997 355.07 485.05 357.045C483.13 359.02 480.722 360.552 477.828 361.643C474.934 362.704 471.567 363.234 467.727 363.234H454.178V318.45H467.727ZM549.917 318.45C554.812 318.45 558.477 319.512 560.911 321.634C563.345 323.726 564.562 326.703 564.562 330.563C564.562 332.538 564.251 334.336 563.629 335.957C563.034 337.549 562.114 338.904 560.87 340.024C559.653 341.144 558.125 342.014 556.286 342.633C554.474 343.252 552.351 343.562 549.917 343.562H530.201V318.45H549.917ZM574.32 93C559.737 93 546.456 96.711 534.477 104.133C522.628 111.424 513.318 121.125 506.547 133.234C499.776 145.213 496.391 158.625 496.391 173.469L496 298.273C496 299.124 496.012 299.971 496.034 300.812H544.896C544.851 299.98 544.828 299.133 544.828 298.273V173.469C544.828 164.875 547.367 157.323 552.445 150.812C557.523 144.302 564.815 141.047 574.32 141.047C582.914 141.047 590.076 144.237 595.805 150.617C601.534 156.997 604.398 164.615 604.398 173.469V191.828C604.398 192.87 604.919 193.391 605.961 193.391H650.883C651.924 193.391 652.445 192.87 652.445 191.828V173.469C652.445 158.495 648.93 144.953 641.898 132.844C634.997 120.604 625.687 110.904 613.969 103.742C602.38 96.5808 589.164 93 574.32 93ZM605.961 278.156C604.919 278.156 604.399 278.677 604.398 279.719V298.273C604.398 299.128 604.368 299.974 604.31 300.812H652.801C652.823 299.97 652.836 299.124 652.836 298.273V279.719C652.836 278.677 652.315 278.156 651.273 278.156H605.961ZM132.149 93C131.108 93 130.587 93.5208 130.587 94.5625L130.002 300.32H178.634V268.586H209.103C223.165 268.586 236.186 264.81 248.165 257.258C260.144 249.706 269.91 239.029 277.462 225.227C284.884 211.294 288.595 194.953 288.595 176.203C288.595 150.552 281.433 130.305 267.11 115.461C252.918 100.487 233.582 93 209.103 93H132.149ZM313.624 93C312.582 93 312.062 93.5208 312.062 94.5625L311.477 300.32H359.947L360.108 251.789H386.476C396.371 251.789 404.705 255.305 411.476 262.336C418.246 269.367 421.632 277.701 421.632 287.336V300.32H470.131L470.069 287.336C470.069 265.721 462.843 246.906 448.39 230.891C451.645 228.286 455.226 224.25 459.132 218.781C463.168 213.312 466.684 206.607 469.679 198.664C472.674 190.721 474.171 181.867 474.171 172.102C474.171 157.128 470.525 143.716 463.233 131.867C456.072 120.018 446.437 110.578 434.327 103.547C422.218 96.5156 408.937 93 394.483 93H313.624ZM209.103 140.461C218.868 140.461 226.55 143.846 232.149 150.617C237.748 157.258 240.548 165.786 240.548 176.203C240.548 189.224 237.423 199.836 231.173 208.039C224.923 216.112 217.566 220.148 209.103 220.148H178.634V140.852L209.103 140.461ZM394.483 140.852C403.077 140.852 410.499 143.977 416.749 150.227C422.999 156.346 426.124 163.638 426.124 172.102C426.124 180.956 422.869 188.443 416.358 194.562C409.978 200.682 402.687 203.742 394.483 203.742H360.108V140.852H394.483Z" fill="#111117"/>
</svg>
